<svg version="1.1" id="Layer_1" xmlns="http://www.w3.org/2000/svg" xmlns:xlink="http://www.w3.org/1999/xlink" x="0px" y="0px"
	 width="100%" viewBox="0 0 540 541" enable-background="new 0 0 540 541" xml:space="preserve">
<path fill="#016A69" opacity="1.000000" stroke="none" 
	d="
M541.000000,288.000000 
	C541.000000,290.042328 541.000000,292.084625 540.614258,294.744995 
	C539.364807,302.422333 538.811951,309.536255 537.582825,316.531403 
	C532.536682,345.249786 523.451294,372.593842 509.634125,398.358429 
	C486.948090,440.660522 455.454803,474.815186 414.778900,500.203430 
	C373.133057,526.197083 327.838745,540.574829 278.427826,540.883545 
	C276.949615,540.892761 275.475861,541.611877 274.000000,542.000000 
	C271.957672,542.000000 269.915375,542.000000 267.304993,541.572510 
	C252.413559,539.725281 238.023315,538.781372 223.781937,536.778809 
	C199.997116,533.434387 177.521790,525.487061 155.946274,515.158691 
	C117.957161,496.972931 85.863800,471.310364 59.857471,438.110443 
	C42.039394,415.363800 28.100378,390.437500 18.406647,363.237030 
	C12.692289,347.202637 7.781034,330.880920 6.072698,313.829315 
	C4.636792,299.496979 2.369704,285.131439 2.452139,270.791992 
	C2.563322,251.451691 4.663280,232.189987 9.050237,213.173141 
	C15.961924,183.211914 27.203886,155.130676 43.605705,129.173416 
	C58.744278,105.215370 77.004318,83.965057 98.881866,65.775352 
	C115.381744,52.056820 133.010773,40.162991 152.239868,30.748173 
	C179.621399,17.341801 208.357819,8.485411 238.780533,4.901171 
	C264.885437,1.825630 290.897461,2.044210 316.700897,6.383986 
	C344.752869,11.101930 371.456207,20.247915 396.767151,33.513527 
	C432.647491,52.318600 462.511139,78.105461 487.028442,110.156883 
	C503.146667,131.228210 515.545593,154.442429 524.716980,179.313660 
	C530.963257,196.252502 535.686035,213.624252 537.928955,231.610916 
	C538.779114,238.428909 539.966431,245.204880 541.000000,252.000000 
	C541.000000,252.750000 541.000000,253.500000 540.750366,254.956238 
	C540.334656,263.717255 540.072388,271.771820 540.056030,279.826874 
	C540.050476,282.550598 540.667480,285.275574 541.000000,288.000000 
M474.272461,395.454254 
	C474.516846,388.340149 474.858368,381.227600 474.969452,374.111389 
	C475.036774,369.800385 475.577179,365.254944 474.462341,361.212708 
	C471.145966,349.188354 464.238495,343.472778 449.982208,343.129974 
	C428.667389,342.617432 407.330444,342.933990 386.004150,343.080872 
	C382.596497,343.104309 379.080688,343.702454 375.812469,344.689301 
	C365.357819,347.846069 361.018280,355.948456 359.428223,366.467377 
	C357.202087,366.467377 355.065643,366.468536 352.929169,366.467224 
	C339.766357,366.459106 326.602814,366.372192 313.441254,366.497253 
	C310.169312,366.528320 306.764221,366.785126 303.660797,367.728973 
	C292.961060,370.983032 287.760681,378.824036 286.663513,390.001007 
	C278.099457,390.001007 269.787231,390.156372 261.494202,389.827850 
	C260.297150,389.780426 258.349609,387.508850 258.179871,386.094818 
	C256.978088,376.083374 245.243912,367.446777 235.971313,367.811920 
	C220.189514,368.433472 204.365494,367.983093 188.409012,367.983093 
	C188.128113,366.542847 187.920609,365.440002 187.697388,364.340363 
	C185.522888,353.628601 176.445709,345.802399 166.203094,345.743164 
	C142.553940,345.606323 118.903511,345.561798 95.254150,345.641998 
	C82.141159,345.686462 71.601257,356.633423 72.893448,370.478699 
	C73.510086,377.085693 73.494415,383.843750 72.891922,390.453796 
	C71.544449,405.236908 84.816757,415.165527 97.430199,415.028656 
	C111.424515,414.876831 125.422745,414.919922 139.416306,415.104309 
	C140.935150,415.124298 143.596085,416.452148 143.765594,417.492889 
	C145.809647,430.042755 156.689560,437.305145 168.544815,437.060028 
	C183.511047,436.750610 198.488525,436.985352 213.411209,436.985352 
	C213.909088,438.439819 214.300446,439.506958 214.641174,440.590027 
	C218.781967,453.751770 225.725723,458.964691 239.403564,458.985107 
	C261.730377,459.018433 284.057434,459.027527 306.384094,458.955353 
	C318.052399,458.917633 327.004730,451.459656 328.955078,440.005157 
	C329.484863,436.893494 330.615509,435.893219 333.778290,435.930786 
	C347.772339,436.096832 361.775452,435.747253 375.763947,436.071869 
	C392.939087,436.470459 401.523895,425.637573 402.572266,412.984985 
	C404.645752,412.984985 406.779968,412.985291 408.914154,412.984924 
	C422.910004,412.982513 436.906433,413.060303 450.901489,412.952332 
	C462.359039,412.863953 470.670166,406.774841 474.272461,395.454254 
M240.992233,89.509293 
	C227.186859,101.974022 213.315430,114.366562 199.592270,126.921165 
	C181.085052,143.852493 162.696503,160.913452 144.247360,177.908295 
	C138.196671,183.481995 136.363785,190.346420 139.347565,197.642151 
	C141.907150,203.900635 147.827118,208.554932 155.708725,208.104218 
	C162.627747,207.708557 169.587311,208.021591 177.002533,208.021591 
	C177.002533,210.871643 177.003357,213.162903 177.002396,215.454178 
	C176.991440,241.606720 176.934753,267.759369 176.983932,293.911774 
	C177.021057,313.653931 195.443253,331.955963 215.267929,331.976715 
	C252.081360,332.015320 288.902557,331.540558 325.705414,332.167694 
	C347.238434,332.534637 367.668274,314.051971 367.148468,290.722290 
	C366.580963,265.248505 367.005768,239.752625 366.998138,214.266373 
	C366.997589,212.325653 366.998077,210.384918 366.998077,208.023987 
	C374.564636,208.023987 381.527283,207.874573 388.480621,208.064987 
	C395.789734,208.265152 400.815826,204.839203 403.903381,198.575500 
	C407.777710,190.715561 405.289795,183.736099 400.549500,179.058731 
	C394.277649,172.870178 387.839966,166.843887 381.341583,160.891907 
	C362.611450,143.736511 343.794006,126.676521 325.052063,109.533974 
	C312.185333,97.765244 299.380920,85.928307 286.560669,74.108849 
	C275.034027,63.482029 266.194153,66.181587 258.565735,73.017586 
	C252.761261,78.219101 247.176880,83.666229 240.992233,89.509293 
z"/>
<path fill="#FEFFFF" opacity="1.000000" stroke="none" 
	d="
M541.000000,251.531342 
	C539.966431,245.204880 538.779114,238.428909 537.928955,231.610916 
	C535.686035,213.624252 530.963257,196.252502 524.716980,179.313660 
	C515.545593,154.442429 503.146667,131.228210 487.028442,110.156883 
	C462.511139,78.105461 432.647491,52.318600 396.767151,33.513527 
	C371.456207,20.247915 344.752869,11.101930 316.700897,6.383986 
	C290.897461,2.044210 264.885437,1.825630 238.780533,4.901171 
	C208.357819,8.485411 179.621399,17.341801 152.239868,30.748173 
	C133.010773,40.162991 115.381744,52.056820 98.881866,65.775352 
	C77.004318,83.965057 58.744278,105.215370 43.605705,129.173416 
	C27.203886,155.130676 15.961924,183.211914 9.050237,213.173141 
	C4.663280,232.189987 2.563322,251.451691 2.452139,270.791992 
	C2.369704,285.131439 4.636792,299.496979 6.072698,313.829315 
	C7.781034,330.880920 12.692289,347.202637 18.406647,363.237030 
	C28.100378,390.437500 42.039394,415.363800 59.857471,438.110443 
	C85.863800,471.310364 117.957161,496.972931 155.946274,515.158691 
	C177.521790,525.487061 199.997116,533.434387 223.781937,536.778809 
	C238.023315,538.781372 252.413559,539.725281 266.868469,541.572510 
	C178.357605,542.000000 89.715202,542.000000 1.036403,542.000000 
	C1.036403,361.740295 1.036403,181.480591 1.036403,1.110440 
	C180.877060,1.110440 360.754211,1.110440 541.000000,1.110440 
	C541.000000,84.353867 541.000000,167.708267 541.000000,251.531342 
z"/>
<path fill="#FEFFFF" opacity="1.000000" stroke="none" 
	d="
M274.468658,542.000000 
	C275.475861,541.611877 276.949615,540.892761 278.427826,540.883545 
	C327.838745,540.574829 373.133057,526.197083 414.778900,500.203430 
	C455.454803,474.815186 486.948090,440.660522 509.634125,398.358429 
	C523.451294,372.593842 532.536682,345.249786 537.582825,316.531403 
	C538.811951,309.536255 539.364807,302.422333 540.614258,295.181519 
	C541.000000,377.263214 541.000000,459.526459 541.000000,542.000000 
	C452.312561,542.000000 363.624939,542.000000 274.468658,542.000000 
z"/>
<path fill="#2B7375" opacity="1.000000" stroke="none" 
	d="
M541.000000,287.531342 
	C540.667480,285.275574 540.050476,282.550598 540.056030,279.826874 
	C540.072388,271.771820 540.334656,263.717255 540.750366,255.331238 
	C541.000000,265.687561 541.000000,276.375122 541.000000,287.531342 
z"/>
<path fill="#F7FCFC" opacity="1.000000" stroke="none" 
	d="
M474.176880,395.862244 
	C470.670166,406.774841 462.359039,412.863953 450.901489,412.952332 
	C436.906433,413.060303 422.910004,412.982513 408.914154,412.984924 
	C406.779968,412.985291 404.645752,412.984985 402.572266,412.984985 
	C401.523895,425.637573 392.939087,436.470459 375.763947,436.071869 
	C361.775452,435.747253 347.772339,436.096832 333.778290,435.930786 
	C330.615509,435.893219 329.484863,436.893494 328.955078,440.005157 
	C327.004730,451.459656 318.052399,458.917633 306.384094,458.955353 
	C284.057434,459.027527 261.730377,459.018433 239.403564,458.985107 
	C225.725723,458.964691 218.781967,453.751770 214.641174,440.590027 
	C214.300446,439.506958 213.909088,438.439819 213.411209,436.985352 
	C198.488525,436.985352 183.511047,436.750610 168.544815,437.060028 
	C156.689560,437.305145 145.809647,430.042755 143.765594,417.492889 
	C143.596085,416.452148 140.935150,415.124298 139.416306,415.104309 
	C125.422745,414.919922 111.424515,414.876831 97.430199,415.028656 
	C84.816757,415.165527 71.544449,405.236908 72.891922,390.453796 
	C73.494415,383.843750 73.510086,377.085693 72.893448,370.478699 
	C71.601257,356.633423 82.141159,345.686462 95.254150,345.641998 
	C118.903511,345.561798 142.553940,345.606323 166.203094,345.743164 
	C176.445709,345.802399 185.522888,353.628601 187.697388,364.340363 
	C187.920609,365.440002 188.128113,366.542847 188.409012,367.983093 
	C204.365494,367.983093 220.189514,368.433472 235.971313,367.811920 
	C245.243912,367.446777 256.978088,376.083374 258.179871,386.094818 
	C258.349609,387.508850 260.297150,389.780426 261.494202,389.827850 
	C269.787231,390.156372 278.099457,390.001007 286.663513,390.001007 
	C287.760681,378.824036 292.961060,370.983032 303.660797,367.728973 
	C306.764221,366.785126 310.169312,366.528320 313.441254,366.497253 
	C326.602814,366.372192 339.766357,366.459106 352.929169,366.467224 
	C355.065643,366.468536 357.202087,366.467377 359.428223,366.467377 
	C361.018280,355.948456 365.357819,347.846069 375.812469,344.689301 
	C379.080688,343.702454 382.596497,343.104309 386.004150,343.080872 
	C407.330444,342.933990 428.667389,342.617432 449.982208,343.129974 
	C464.238495,343.472778 471.145966,349.188354 474.462341,361.212708 
	C475.577179,365.254944 475.036774,369.800385 474.969452,374.111389 
	C474.858368,381.227600 474.516846,388.340149 474.176880,395.862244 
M291.499329,445.007568 
	C296.326965,445.010223 301.154633,445.027191 305.982239,445.012085 
	C312.395569,444.992035 315.924866,441.449829 315.984467,434.865570 
	C316.046234,428.041016 316.022858,421.215515 316.012329,414.390472 
	C316.001770,407.521027 312.000458,403.046875 305.164062,403.010071 
	C283.024323,402.890808 260.882874,402.910339 238.743256,403.054840 
	C232.531052,403.095398 227.276306,406.675995 227.893326,414.252991 
	C228.418457,420.701935 227.973679,427.228607 227.987381,433.720825 
	C228.006165,442.617981 230.373337,445.026581 239.060577,445.025177 
	C256.206940,445.022430 273.353271,445.013763 291.499329,445.007568 
M395.986908,373.522583 
	C403.329193,380.529266 401.784332,389.875397 402.127197,399.014648 
	C419.544861,399.014648 436.512115,399.278320 453.453278,398.732269 
	C456.013428,398.649719 460.396759,394.971344 460.606354,392.654907 
	C461.463043,383.187103 461.453857,373.576782 460.882019,364.071960 
	C460.610657,359.561401 456.747406,357.084442 452.072418,357.068909 
	C429.079498,356.992554 406.086121,356.947388 383.093323,357.021393 
	C377.482910,357.039429 374.452332,360.243805 373.799927,366.314606 
	C381.633728,366.542297 389.428711,367.040375 395.986908,373.522583 
M388.169373,386.808167 
	C386.060272,382.057190 382.505402,379.885071 377.214508,379.951111 
	C364.897614,380.104828 352.577484,379.992340 340.258667,379.995178 
	C330.603424,379.997437 320.946960,379.919800 311.293365,380.050293 
	C304.420044,380.143188 300.753601,383.915741 301.548553,390.034363 
	C310.085358,389.354309 317.974579,390.859070 323.984833,397.730377 
	C330.008301,404.616913 329.661591,413.210693 330.067078,421.994324 
	C347.388367,421.994324 364.334442,422.193848 381.270233,421.865112 
	C385.970703,421.773895 388.689026,417.826233 388.841492,413.446320 
	C389.141510,404.827087 388.689301,396.181671 388.169373,386.808167 
M109.502129,401.007874 
	C120.602348,401.007874 131.702576,401.007874 143.139252,401.007874 
	C143.107071,391.605377 142.745529,382.735657 149.053253,375.433350 
	C155.691574,367.748322 164.586014,367.485504 173.640701,368.026489 
	C173.674255,362.566193 169.970932,359.023346 164.492279,359.012909 
	C141.845642,358.969788 119.198906,358.961700 96.552238,358.983429 
	C90.554863,358.989166 86.135941,363.132721 86.018829,369.059418 
	C85.874130,376.383026 85.846519,383.716766 86.064583,391.037323 
	C86.259727,397.588440 89.943573,400.931732 96.514183,400.997498 
	C100.510284,401.037506 104.507095,401.006805 109.502129,401.007874 
M226.955795,392.220642 
	C232.853882,391.136414 238.751953,390.052185 244.656281,388.966797 
	C243.769226,384.091797 240.719940,381.096069 235.376373,381.065216 
	C212.564178,380.933502 189.750488,380.913666 166.938293,381.034058 
	C161.037567,381.065186 157.134766,385.254211 157.033554,391.173645 
	C156.908325,398.498352 156.913773,405.827881 157.017273,413.153137 
	C157.106491,419.465790 160.701721,422.975311 166.961639,422.990143 
	C181.282211,423.024078 195.602936,423.009033 209.923553,422.983246 
	C211.191498,422.980988 212.459045,422.754456 214.099838,422.596039 
	C213.285736,410.435638 214.389252,399.227234 226.955795,392.220642 
z"/>
<path fill="#F7FCFC" opacity="1.000000" stroke="none" 
	d="
M241.243408,89.256683 
	C247.176880,83.666229 252.761261,78.219101 258.565735,73.017586 
	C266.194153,66.181587 275.034027,63.482029 286.560669,74.108849 
	C299.380920,85.928307 312.185333,97.765244 325.052063,109.533974 
	C343.794006,126.676521 362.611450,143.736511 381.341583,160.891907 
	C387.839966,166.843887 394.277649,172.870178 400.549500,179.058731 
	C405.289795,183.736099 407.777710,190.715561 403.903381,198.575500 
	C400.815826,204.839203 395.789734,208.265152 388.480621,208.064987 
	C381.527283,207.874573 374.564636,208.023987 366.998077,208.023987 
	C366.998077,210.384918 366.997589,212.325653 366.998138,214.266373 
	C367.005768,239.752625 366.580963,265.248505 367.148468,290.722290 
	C367.668274,314.051971 347.238434,332.534637 325.705414,332.167694 
	C288.902557,331.540558 252.081360,332.015320 215.267929,331.976715 
	C195.443253,331.955963 177.021057,313.653931 176.983932,293.911774 
	C176.934753,267.759369 176.991440,241.606720 177.002396,215.454178 
	C177.003357,213.162903 177.002533,210.871643 177.002533,208.021591 
	C169.587311,208.021591 162.627747,207.708557 155.708725,208.104218 
	C147.827118,208.554932 141.907150,203.900635 139.347565,197.642151 
	C136.363785,190.346420 138.196671,183.481995 144.247360,177.908295 
	C162.696503,160.913452 181.085052,143.852493 199.592270,126.921165 
	C213.315430,114.366562 227.186859,101.974022 241.243408,89.256683 
M189.974838,267.500000 
	C189.980667,275.494995 189.828735,283.494141 190.039215,291.483765 
	C190.228043,298.650330 192.854782,304.959259 197.764740,310.260864 
	C204.142670,317.147552 212.522324,318.716705 221.286911,318.742279 
	C255.099579,318.840851 288.912842,318.824158 322.725494,318.722595 
	C326.498047,318.711273 330.390808,318.336334 334.016937,317.352631 
	C346.063080,314.084747 353.922485,303.191559 353.975006,289.785706 
	C354.072906,264.801331 354.004395,239.816299 354.005096,214.831528 
	C354.005280,208.389236 354.005127,201.946945 354.005127,195.007477 
	C356.109924,195.007477 357.898407,195.005615 359.686859,195.007782 
	C368.514496,195.018448 377.346252,195.175766 386.166443,194.925186 
	C388.050568,194.871658 390.786652,193.773743 391.478424,192.352783 
	C392.058594,191.161102 390.684967,188.350098 389.387512,187.033295 
	C384.852844,182.430862 380.006348,178.132278 375.224640,173.777191 
	C353.206390,153.723419 331.169159,133.690475 309.140442,113.648209 
	C298.225952,103.717949 287.117188,93.988815 276.503571,83.746628 
	C272.459320,79.843887 269.862610,80.937302 266.524841,84.120392 
	C259.677765,90.650093 252.708679,97.052895 245.742340,103.456261 
	C230.996964,117.010017 216.249680,130.561966 201.447723,144.053818 
	C191.532043,153.091904 181.482178,161.982773 171.567322,171.021759 
	C165.682983,176.386307 159.845490,181.811874 154.219635,187.442505 
	C153.029724,188.633408 151.915756,191.265533 152.461273,192.459213 
	C153.063950,193.777985 155.590652,194.843048 157.322205,194.909973 
	C164.140656,195.173569 170.975983,194.999329 177.805038,194.991730 
	C181.745514,194.987350 185.686005,194.990936 189.974838,194.990936 
	C189.974838,219.260544 189.974838,242.880280 189.974838,267.500000 
z"/>
<path fill="#016A6A" opacity="1.000000" stroke="none" 
	d="
M290.999481,445.007568 
	C273.353271,445.013763 256.206940,445.022430 239.060577,445.025177 
	C230.373337,445.026581 228.006165,442.617981 227.987381,433.720825 
	C227.973679,427.228607 228.418457,420.701935 227.893326,414.252991 
	C227.276306,406.675995 232.531052,403.095398 238.743256,403.054840 
	C260.882874,402.910339 283.024323,402.890808 305.164062,403.010071 
	C312.000458,403.046875 316.001770,407.521027 316.012329,414.390472 
	C316.022858,421.215515 316.046234,428.041016 315.984467,434.865570 
	C315.924866,441.449829 312.395569,444.992035 305.982239,445.012085 
	C301.154633,445.027191 296.326965,445.010223 290.999481,445.007568 
z"/>
<path fill="#026B6A" opacity="1.000000" stroke="none" 
	d="
M395.731049,373.266113 
	C389.428711,367.040375 381.633728,366.542297 373.799927,366.314606 
	C374.452332,360.243805 377.482910,357.039429 383.093323,357.021393 
	C406.086121,356.947388 429.079498,356.992554 452.072418,357.068909 
	C456.747406,357.084442 460.610657,359.561401 460.882019,364.071960 
	C461.453857,373.576782 461.463043,383.187103 460.606354,392.654907 
	C460.396759,394.971344 456.013428,398.649719 453.453278,398.732269 
	C436.512115,399.278320 419.544861,399.014648 402.127197,399.014648 
	C401.784332,389.875397 403.329193,380.529266 395.731049,373.266113 
z"/>
<path fill="#036B6A" opacity="1.000000" stroke="none" 
	d="
M388.358826,387.177612 
	C388.689301,396.181671 389.141510,404.827087 388.841492,413.446320 
	C388.689026,417.826233 385.970703,421.773895 381.270233,421.865112 
	C364.334442,422.193848 347.388367,421.994324 330.067078,421.994324 
	C329.661591,413.210693 330.008301,404.616913 323.984833,397.730377 
	C317.974579,390.859070 310.085358,389.354309 301.548553,390.034363 
	C300.753601,383.915741 304.420044,380.143188 311.293365,380.050293 
	C320.946960,379.919800 330.603424,379.997437 340.258667,379.995178 
	C352.577484,379.992340 364.897614,380.104828 377.214508,379.951111 
	C382.505402,379.885071 386.060272,382.057190 388.358826,387.177612 
z"/>
<path fill="#026B6A" opacity="1.000000" stroke="none" 
	d="
M109.002853,401.007874 
	C104.507095,401.006805 100.510284,401.037506 96.514183,400.997498 
	C89.943573,400.931732 86.259727,397.588440 86.064583,391.037323 
	C85.846519,383.716766 85.874130,376.383026 86.018829,369.059418 
	C86.135941,363.132721 90.554863,358.989166 96.552238,358.983429 
	C119.198906,358.961700 141.845642,358.969788 164.492279,359.012909 
	C169.970932,359.023346 173.674255,362.566193 173.640701,368.026489 
	C164.586014,367.485504 155.691574,367.748322 149.053253,375.433350 
	C142.745529,382.735657 143.107071,391.605377 143.139252,401.007874 
	C131.702576,401.007874 120.602348,401.007874 109.002853,401.007874 
z"/>
<path fill="#026B6A" opacity="1.000000" stroke="none" 
	d="
M226.622345,392.410645 
	C214.389252,399.227234 213.285736,410.435638 214.099838,422.596039 
	C212.459045,422.754456 211.191498,422.980988 209.923553,422.983246 
	C195.602936,423.009033 181.282211,423.024078 166.961639,422.990143 
	C160.701721,422.975311 157.106491,419.465790 157.017273,413.153137 
	C156.913773,405.827881 156.908325,398.498352 157.033554,391.173645 
	C157.134766,385.254211 161.037567,381.065186 166.938293,381.034058 
	C189.750488,380.913666 212.564178,380.933502 235.376373,381.065216 
	C240.719940,381.096069 243.769226,384.091797 244.656281,388.966797 
	C238.751953,390.052185 232.853882,391.136414 226.622345,392.410645 
z"/>
<path fill="#016A69" opacity="1.000000" stroke="none" 
	d="
M189.974838,267.000000 
	C189.974838,242.880280 189.974838,219.260544 189.974838,194.990936 
	C185.686005,194.990936 181.745514,194.987350 177.805038,194.991730 
	C170.975983,194.999329 164.140656,195.173569 157.322205,194.909973 
	C155.590652,194.843048 153.063950,193.777985 152.461273,192.459213 
	C151.915756,191.265533 153.029724,188.633408 154.219635,187.442505 
	C159.845490,181.811874 165.682983,176.386307 171.567322,171.021759 
	C181.482178,161.982773 191.532043,153.091904 201.447723,144.053818 
	C216.249680,130.561966 230.996964,117.010017 245.742340,103.456261 
	C252.708679,97.052895 259.677765,90.650093 266.524841,84.120392 
	C269.862610,80.937302 272.459320,79.843887 276.503571,83.746628 
	C287.117188,93.988815 298.225952,103.717949 309.140442,113.648209 
	C331.169159,133.690475 353.206390,153.723419 375.224640,173.777191 
	C380.006348,178.132278 384.852844,182.430862 389.387512,187.033295 
	C390.684967,188.350098 392.058594,191.161102 391.478424,192.352783 
	C390.786652,193.773743 388.050568,194.871658 386.166443,194.925186 
	C377.346252,195.175766 368.514496,195.018448 359.686859,195.007782 
	C357.898407,195.005615 356.109924,195.007477 354.005127,195.007477 
	C354.005127,201.946945 354.005280,208.389236 354.005096,214.831528 
	C354.004395,239.816299 354.072906,264.801331 353.975006,289.785706 
	C353.922485,303.191559 346.063080,314.084747 334.016937,317.352631 
	C330.390808,318.336334 326.498047,318.711273 322.725494,318.722595 
	C288.912842,318.824158 255.099579,318.840851 221.286911,318.742279 
	C212.522324,318.716705 204.142670,317.147552 197.764740,310.260864 
	C192.854782,304.959259 190.228043,298.650330 190.039215,291.483765 
	C189.828735,283.494141 189.980667,275.494995 189.974838,267.000000 
z"/>
</svg>